<?xml version="1.0" encoding="utf-8"?>
<svg xmlns="http://www.w3.org/2000/svg" xmlns:xlink="http://www.w3.org/1999/xlink" style="margin: auto; background: none; display: block; shape-rendering: auto;" width="200px" height="200px" viewBox="0 0 100 100" preserveAspectRatio="xMidYMid">
<defs>
  <path id="ldio-tip0h9qpa6b-p1" d="M0 0v100h100V0H0z M62.9 44.4c-1.7 3.4-5.3 5.8-9.4 5.8H17c-5.8 0-10.5-4.7-10.5-10.5 c0-5.2 3.8-9.6 8.9-10.4c-0.1-0.6-0.2-1.3-0.2-2c0-5.5 4.4-9.9 9.9-9.9c1 0 2 0.2 3 0.5c2.5-4.7 7.4-7.9 13.1-7.9 c6.9 0 12.8 4.8 14.4 11.2c0.3 1.2 0.4 2.4 0.4 3.6c0 1.6-0.2 3.1-0.7 4.5c5 0.8 8.7 5.2 8.7 10.3C64 41.3 63.6 43 62.9 44.4z" transform="translate(-0.175801 0)">
    <animateTransform attributeName="transform" type="translate" values="-3 0;3 0;-3 0" keyTimes="0;0.5;1" dur="2" repeatCount="indefinite" calcMode="spline" keySplines="0.5 0 0.5 1;0.5 0 0.5 1"></animateTransform>
  </path>
  <path id="ldio-tip0h9qpa6b-p2" d="M0 52L58 52L64 47L100 47L100 90L0 90Z"></path>
  <clipPath id="ldio-tip0h9qpa6b-cp1"><use xlink:href="#ldio-tip0h9qpa6b-p1"></use></clipPath>
  <clipPath id="ldio-tip0h9qpa6b-cp2"><use xlink:href="#ldio-tip0h9qpa6b-p2"></use></clipPath>
</defs>
<g clip-path="url(#ldio-tip0h9qpa6b-cp2)"><path fill="#000000" d="M26.1 61.7l1.6-4.3c0.4-1.1-0.1-2.3-1.2-2.8c-1.1-0.4-2.3 0.1-2.8 1.2l-1.6 4.3 c-0.4 1.1 0.1 2.3 1.2 2.8c0.3 0.1 0.5 0.1 0.8 0.1C24.9 63.1 25.8 62.6 26.1 61.7z" transform="translate(-6.84007 18.2402)">
  <animateTransform attributeName="transform" type="translate" values="15 -40;-30 80" keyTimes="0;1" dur="1" repeatCount="indefinite" begin="0s"></animateTransform>
</path>
<path fill="#000000" d="M34.4 68.6l4.2-11.1c0.4-1.1-0.1-2.3-1.2-2.8c-1.1-0.4-2.3 0.1-2.8 1.2L30.4 67 c-0.4 1.1 0.1 2.3 1.2 2.8c0.2 0.1 0.5 0.1 0.8 0.1C33.3 70 34.1 69.4 34.4 68.6z" transform="translate(-11.3401 30.2402)">
  <animateTransform attributeName="transform" type="translate" values="15 -40;-30 80" keyTimes="0;1" dur="1" repeatCount="indefinite" begin="-0.1s"></animateTransform>
</path>
<path fill="#000000" d="M42.7 75.4l6.8-18c0.4-1.1-0.1-2.3-1.2-2.8c-1.1-0.4-2.3 0.1-2.8 1.2l-6.8 18 c-0.4 1.1 0.1 2.3 1.2 2.8c0.2 0.1 0.5 0.1 0.8 0.1C41.6 76.8 42.4 76.3 42.7 75.4z" transform="translate(-15.8401 42.2402)">
  <animateTransform attributeName="transform" type="translate" values="15 -40;-30 80" keyTimes="0;1" dur="1" repeatCount="indefinite" begin="-0.2s"></animateTransform>
</path>
<path fill="#000000" d="M58.3 63.1l2.1-5.5c0.4-1.1-0.1-2.3-1.2-2.8c-1.1-0.4-2.3 0.1-2.8 1.2l-2.1 5.5 c-0.4 1.1 0.1 2.3 1.2 2.8c0.3 0.1 0.5 0.1 0.8 0.1C57.1 64.5 57.9 63.9 58.3 63.1z" transform="translate(-20.3401 54.2402)">
  <animateTransform attributeName="transform" type="translate" values="15 -40;-30 80" keyTimes="0;1" dur="1" repeatCount="indefinite" begin="-0.30000000000000004s"></animateTransform>
</path>
<path fill="#000000" d="M65.1 74.2l7.3-20.3c0.4-1.1-0.2-2.3-1.3-2.7c-1.1-0.4-2.3 0.2-2.7 1.3l-7.3 20.3 c-0.4 1.1 0.2 2.3 1.3 2.7c0.2 0.1 0.5 0.1 0.7 0.1C64 75.6 64.8 75.1 65.1 74.2z" transform="translate(-24.8401 66.2402)">
  <animateTransform attributeName="transform" type="translate" values="15 -40;-30 80" keyTimes="0;1" dur="1" repeatCount="indefinite" begin="-0.4s"></animateTransform>
</path>
<path fill="#000000" d="M77.4 66.8l4.3-13.1c0.4-1.1-0.2-2.3-1.4-2.7c-1.1-0.4-2.3 0.2-2.7 1.4l-4.3 13.1 c-0.4 1.1 0.2 2.3 1.4 2.7c0.2 0.1 0.4 0.1 0.7 0.1C76.3 68.3 77.1 67.7 77.4 66.8z" transform="translate(-29.3401 78.2402)">
  <animateTransform attributeName="transform" type="translate" values="15 -40;-30 80" keyTimes="0;1" dur="1" repeatCount="indefinite" begin="-0.5s"></animateTransform>
</path>
<path fill="#000000" d="M16.9 86.4l6.4-17.3c0.4-1.1-0.2-2.3-1.3-2.8c-1.1-0.4-2.3 0.2-2.8 1.3l-6.4 17.3 c-0.4 1.1 0.2 2.3 1.3 2.8c0.2 0.1 0.5 0.1 0.7 0.1C15.7 87.8 16.6 87.2 16.9 86.4z" transform="translate(11.1599 -29.7598)">
  <animateTransform attributeName="transform" type="translate" values="15 -40;-30 80" keyTimes="0;1" dur="1" repeatCount="indefinite" begin="-0.6000000000000001s"></animateTransform>
</path>
<path fill="#000000" d="M27.6 86.4l3.8-9.8c0.4-1.1-0.1-2.3-1.2-2.8c-1.1-0.4-2.3 0.1-2.8 1.2l-3.8 9.8 c-0.4 1.1 0.1 2.3 1.2 2.8c0.3 0.1 0.5 0.1 0.8 0.1C26.5 87.8 27.3 87.3 27.6 86.4z" transform="translate(6.65993 -17.7598)">
  <animateTransform attributeName="transform" type="translate" values="15 -40;-30 80" keyTimes="0;1" dur="1" repeatCount="indefinite" begin="-0.7000000000000001s"></animateTransform>
</path>
<path fill="#000000" d="M38.5 86.4l1-2.7c0.4-1.1-0.1-2.3-1.2-2.8c-1.1-0.4-2.3 0.1-2.8 1.2l-1 2.7 c-0.4 1.1 0.1 2.3 1.2 2.8c0.3 0.1 0.5 0.1 0.8 0.1C37.4 87.8 38.2 87.3 38.5 86.4z" transform="translate(2.15992 -5.7598)">
  <animateTransform attributeName="transform" type="translate" values="15 -40;-30 80" keyTimes="0;1" dur="1" repeatCount="indefinite" begin="-0.8s"></animateTransform>
</path>
<path fill="#000000" d="M49.3 86.4l5.9-15.2c0.4-1.1-0.1-2.3-1.2-2.8c-1.1-0.4-2.3 0.1-2.8 1.2l-5.9 15.2 c-0.4 1.1 0.1 2.3 1.2 2.8c0.3 0.1 0.5 0.1 0.8 0.1C48.1 87.8 48.9 87.3 49.3 86.4z" transform="translate(-2.34007 6.2402)">
  <animateTransform attributeName="transform" type="translate" values="15 -40;-30 80" keyTimes="0;1" dur="1" repeatCount="indefinite" begin="-0.9s"></animateTransform>
</path>
<path fill="#000000" d="M72.2 81.9l2.9-7.7c0.4-1.1-0.1-2.3-1.2-2.8c-1.1-0.4-2.3 0.1-2.8 1.2l-2.9 7.7 c-0.4 1.1 0.1 2.3 1.2 2.8c0.3 0.1 0.5 0.1 0.8 0.1C71.1 83.3 71.9 82.8 72.2 81.9z" transform="translate(-6.84007 18.2402)">
  <animateTransform attributeName="transform" type="translate" values="15 -40;-30 80" keyTimes="0;1" dur="1" repeatCount="indefinite" begin="-1s"></animateTransform>
</path><path fill="#000000" d="M26.1 61.7l1.6-4.3c0.4-1.1-0.1-2.3-1.2-2.8c-1.1-0.4-2.3 0.1-2.8 1.2l-1.6 4.3 c-0.4 1.1 0.1 2.3 1.2 2.8c0.3 0.1 0.5 0.1 0.8 0.1C24.9 63.1 25.8 62.6 26.1 61.7z" transform="translate(-29.3401 78.2402)">
  <animateTransform attributeName="transform" type="translate" values="15 -40;-30 80" keyTimes="0;1" dur="1" repeatCount="indefinite" begin="-0.5s"></animateTransform>
</path>
<path fill="#000000" d="M34.4 68.6l4.2-11.1c0.4-1.1-0.1-2.3-1.2-2.8c-1.1-0.4-2.3 0.1-2.8 1.2L30.4 67 c-0.4 1.1 0.1 2.3 1.2 2.8c0.2 0.1 0.5 0.1 0.8 0.1C33.3 70 34.1 69.4 34.4 68.6z" transform="translate(11.1599 -29.7598)">
  <animateTransform attributeName="transform" type="translate" values="15 -40;-30 80" keyTimes="0;1" dur="1" repeatCount="indefinite" begin="-0.6s"></animateTransform>
</path>
<path fill="#000000" d="M42.7 75.4l6.8-18c0.4-1.1-0.1-2.3-1.2-2.8c-1.1-0.4-2.3 0.1-2.8 1.2l-6.8 18 c-0.4 1.1 0.1 2.3 1.2 2.8c0.2 0.1 0.5 0.1 0.8 0.1C41.6 76.8 42.4 76.3 42.7 75.4z" transform="translate(6.65993 -17.7598)">
  <animateTransform attributeName="transform" type="translate" values="15 -40;-30 80" keyTimes="0;1" dur="1" repeatCount="indefinite" begin="-0.7s"></animateTransform>
</path>
<path fill="#000000" d="M58.3 63.1l2.1-5.5c0.4-1.1-0.1-2.3-1.2-2.8c-1.1-0.4-2.3 0.1-2.8 1.2l-2.1 5.5 c-0.4 1.1 0.1 2.3 1.2 2.8c0.3 0.1 0.5 0.1 0.8 0.1C57.1 64.5 57.9 63.9 58.3 63.1z" transform="translate(2.15992 -5.7598)">
  <animateTransform attributeName="transform" type="translate" values="15 -40;-30 80" keyTimes="0;1" dur="1" repeatCount="indefinite" begin="-0.8s"></animateTransform>
</path>
<path fill="#000000" d="M65.1 74.2l7.3-20.3c0.4-1.1-0.2-2.3-1.3-2.7c-1.1-0.4-2.3 0.2-2.7 1.3l-7.3 20.3 c-0.4 1.1 0.2 2.3 1.3 2.7c0.2 0.1 0.5 0.1 0.7 0.1C64 75.6 64.8 75.1 65.1 74.2z" transform="translate(-2.34007 6.2402)">
  <animateTransform attributeName="transform" type="translate" values="15 -40;-30 80" keyTimes="0;1" dur="1" repeatCount="indefinite" begin="-0.9s"></animateTransform>
</path>
<path fill="#000000" d="M77.4 66.8l4.3-13.1c0.4-1.1-0.2-2.3-1.4-2.7c-1.1-0.4-2.3 0.2-2.7 1.4l-4.3 13.1 c-0.4 1.1 0.2 2.3 1.4 2.7c0.2 0.1 0.4 0.1 0.7 0.1C76.3 68.3 77.1 67.7 77.4 66.8z" transform="translate(-6.84007 18.2402)">
  <animateTransform attributeName="transform" type="translate" values="15 -40;-30 80" keyTimes="0;1" dur="1" repeatCount="indefinite" begin="-1s"></animateTransform>
</path>
<path fill="#000000" d="M16.9 86.4l6.4-17.3c0.4-1.1-0.2-2.3-1.3-2.8c-1.1-0.4-2.3 0.2-2.8 1.3l-6.4 17.3 c-0.4 1.1 0.2 2.3 1.3 2.8c0.2 0.1 0.5 0.1 0.7 0.1C15.7 87.8 16.6 87.2 16.9 86.4z" transform="translate(-11.3401 30.2402)">
  <animateTransform attributeName="transform" type="translate" values="15 -40;-30 80" keyTimes="0;1" dur="1" repeatCount="indefinite" begin="-1.1s"></animateTransform>
</path>
<path fill="#000000" d="M27.6 86.4l3.8-9.8c0.4-1.1-0.1-2.3-1.2-2.8c-1.1-0.4-2.3 0.1-2.8 1.2l-3.8 9.8 c-0.4 1.1 0.1 2.3 1.2 2.8c0.3 0.1 0.5 0.1 0.8 0.1C26.5 87.8 27.3 87.3 27.6 86.4z" transform="translate(-15.8401 42.2402)">
  <animateTransform attributeName="transform" type="translate" values="15 -40;-30 80" keyTimes="0;1" dur="1" repeatCount="indefinite" begin="-1.2000000000000002s"></animateTransform>
</path>
<path fill="#000000" d="M38.5 86.4l1-2.7c0.4-1.1-0.1-2.3-1.2-2.8c-1.1-0.4-2.3 0.1-2.8 1.2l-1 2.7 c-0.4 1.1 0.1 2.3 1.2 2.8c0.3 0.1 0.5 0.1 0.8 0.1C37.4 87.8 38.2 87.3 38.5 86.4z" transform="translate(-20.3401 54.2402)">
  <animateTransform attributeName="transform" type="translate" values="15 -40;-30 80" keyTimes="0;1" dur="1" repeatCount="indefinite" begin="-1.3s"></animateTransform>
</path>
<path fill="#000000" d="M49.3 86.4l5.9-15.2c0.4-1.1-0.1-2.3-1.2-2.8c-1.1-0.4-2.3 0.1-2.8 1.2l-5.9 15.2 c-0.4 1.1 0.1 2.3 1.2 2.8c0.3 0.1 0.5 0.1 0.8 0.1C48.1 87.8 48.9 87.3 49.3 86.4z" transform="translate(-24.8401 66.2402)">
  <animateTransform attributeName="transform" type="translate" values="15 -40;-30 80" keyTimes="0;1" dur="1" repeatCount="indefinite" begin="-1.4s"></animateTransform>
</path>
<path fill="#000000" d="M72.2 81.9l2.9-7.7c0.4-1.1-0.1-2.3-1.2-2.8c-1.1-0.4-2.3 0.1-2.8 1.2l-2.9 7.7 c-0.4 1.1 0.1 2.3 1.2 2.8c0.3 0.1 0.5 0.1 0.8 0.1C71.1 83.3 71.9 82.8 72.2 81.9z" transform="translate(-29.3401 78.2402)">
  <animateTransform attributeName="transform" type="translate" values="15 -40;-30 80" keyTimes="0;1" dur="1" repeatCount="indefinite" begin="-1.5s"></animateTransform>
</path></g>
<path fill="#000000" d="M53.2 30.3c0.4-1.3 0.6-2.7 0.6-4.2c0-1.2-0.1-2.3-0.4-3.4c-1.5-6-7-10.5-13.5-10.5 c-5.3 0-9.9 3-12.3 7.4c-0.9-0.3-1.8-0.4-2.8-0.4c-5.1 0-9.3 4.1-9.3 9.3c0 0.6 0.1 1.3 0.2 1.9c-4.7 0.7-8.3 4.8-8.3 9.7 c0 5.4 4.4 9.8 9.8 9.8h34.2c3.8 0 7.1-2.2 8.8-5.4c0.7-1.3 1.1-2.9 1.1-4.5C61.4 35.2 57.8 31.1 53.2 30.3z" transform="translate(-0.175801 0)">
  <animateTransform attributeName="transform" type="translate" values="-3 0;3 0;-3 0" keyTimes="0;0.5;1" dur="2" repeatCount="indefinite" calcMode="spline" keySplines="0.5 0 0.5 1;0.5 0 0.5 1"></animateTransform>
</path>
<g clip-path="url(#ldio-tip0h9qpa6b-cp1)">
  <path fill="#483d8b" d="M84.9 28.9c0.4-1.1 0.6-2.3 0.6-3.5c0-1-0.1-1.9-0.4-2.8 c-1.3-5-6.1-8.7-11.8-8.7c-4.6 0-8.7 2.5-10.7 6.1c-0.8-0.2-1.6-0.4-2.4-0.4c-4.5 0-8.1 3.4-8.1 7.6c0 0.5 0.1 1 0.2 1.5 c-4.1 0.6-7.2 4-7.2 8c0 4.5 3.8 8.1 8.6 8.1h29.8c3.3 0 6.2-1.8 7.7-4.4c0.6-1.1 0.9-2.3 0.9-3.7C92 32.9 88.9 29.6 84.9 28.9z" transform="translate(2.17396 0)">
    <animateTransform attributeName="transform" type="translate" values="-3 0;3 0;-3 0" keyTimes="0;0.5;1" dur="1.32" repeatCount="indefinite" calcMode="spline" keySplines="0.5 0 0.5 1;0.5 0 0.5 1"></animateTransform>
  </path>
</g>
<!-- [ldio] generated by https://loading.io/ --></svg>